<?xml version="1.0" encoding="UTF-8"?>
<svg id="Capa_1" data-name="Capa 1" xmlns="http://www.w3.org/2000/svg" viewBox="0 0 16 16">
  <defs>
    <style>
      .cls-1 {
        fill: #81ade1;
        stroke-width: 0px;
      }
    </style>
  </defs>
  <path class="cls-1" d="M4.09,12.77l2.49-6.54h1.6l2.52,6.54h-1.59l-.53-1.39h-2.53l-.46,1.39h-1.5ZM8.25,10.29l-.73-2.11c-.02-.06-.05-.17-.08-.32-.03-.15-.07-.34-.1-.56-.04.21-.08.4-.11.57-.04.17-.06.28-.08.34l-.71,2.08h1.81Z"/>
  <g>
    <path class="cls-1" d="M4.8,2.13c-2.06,0-3.73,1.67-3.73,3.73v5.33c0,2.06,1.67,3.73,3.73,3.73h5.33c2.06,0,3.73-1.67,3.73-3.73v-2.67c0-.29.24-.53.53-.53s.53.24.53.53v2.67c0,2.65-2.15,4.8-4.8,4.8h-5.33c-2.65,0-4.8-2.15-4.8-4.8v-5.33C0,3.22,2.15,1.07,4.8,1.07h2.67c.29,0,.53.24.53.53s-.24.53-.53.53h-2.67Z"/>
    <path class="cls-1" d="M16,3.2c0,1.77-1.43,3.2-3.2,3.2s-3.2-1.43-3.2-3.2S11.03,0,12.8,0s3.2,1.43,3.2,3.2"/>
  </g>
</svg>