<?xml version="1.0" encoding="UTF-8"?>
<svg id="textos-editables" xmlns="http://www.w3.org/2000/svg" viewBox="0 0 16 16">
  <defs>
    <style>
      .cls-1 {
        fill: #b14875;
        stroke-width: 0px;
      }
    </style>
  </defs>
  <path class="cls-1" d="M8.18,8.07c2.21,0,4-1.79,4-4S10.39.08,8.18.08s-4,1.79-4,4,1.79,4,4,4"/>
  <path class="cls-1" d="M15.17,10.64c-.1-.34-.35-.88-1.12-1.26-.42-.2-1.64-.94-2.54-.7-.55.42-1.18.73-1.87.92l-.19,1.6-2.78-1.6c-.72-.2-1.38-.54-1.96-.99-.42-.28-1.82.45-2.53.85-.75.43-1.23.83-1.33,1.19-.36,1.3-1.49,3.16-.51,3.48,2.81,1.71,6.09,1.81,6.23,1.81h.58s-.26-2.13-.26-2.13l2.08,1.2-.11.94h.58c.14-.02,3.42-.12,6.23-1.83.65-.31-.1-2.07-.51-3.5ZM9.14,13.78l-2.41-1.39-.19-1.54,2.76,1.59-.16,1.34Z"/>
</svg>