<?xml version="1.0" encoding="UTF-8"?>
<svg id="Capa_1" data-name="Capa 1" xmlns="http://www.w3.org/2000/svg" viewBox="0 0 16 16">
  <defs>
    <style>
      .cls-1 {
        fill: #9652ca;
        stroke-width: 0px;
      }
    </style>
  </defs>
  <path class="cls-1" d="M4.82,2.13c-2.06,0-3.73,1.67-3.73,3.73v5.33c0,2.06,1.67,3.73,3.73,3.73h5.33c2.06,0,3.73-1.67,3.73-3.73v-2.67c0-.29.24-.53.53-.53s.53.24.53.53v2.67c0,2.65-2.15,4.8-4.8,4.8h-5.33C2.17,16,.02,13.85.02,11.2v-5.33C.02,3.22,2.17,1.07,4.82,1.07h2.67c.29,0,.53.24.53.53s-.24.53-.53.53h-2.67Z"/>
  <path class="cls-1" d="M16.02,3.2c0,1.77-1.43,3.2-3.2,3.2s-3.2-1.43-3.2-3.2S11.05,0,12.82,0s3.2,1.43,3.2,3.2"/>
  <g>
    <path class="cls-1" d="M5.92,10.42h-1.93v1.31h2.26v.81h-3.27v-4.88h3.26v.81h-2.26v1.16h1.93v.79Z"/>
    <path class="cls-1" d="M8.16,7.66l1.25,3.54,1.25-3.54h1.32v4.88h-1.01v-1.33l.1-2.3-1.32,3.63h-.69l-1.31-3.63.1,2.3v1.33h-1v-4.88h1.31Z"/>
  </g>
</svg>