<?xml version="1.0" encoding="UTF-8"?>
<svg id="textos-editables" xmlns="http://www.w3.org/2000/svg" viewBox="0 0 16 16">
  <defs>
    <style>
      .cls-1 {
        fill: #b5877a;
        stroke-width: 0px;
      }
    </style>
  </defs>
  <path class="cls-1" d="M7.99,6c-.22.93-.61,1.78-1.04,2.61.47-.12.61-.16,1.04.1.65.4,3.6,3.29,4.39,3.57,2.03.73,3.35-2.56,1.45-3.65-.71-.4-5.1-1.85-5.41-2.03-.44-.26.04-.61-.43-.6Z"/>
  <path class="cls-1" d="M4.22,7.77c1.76,1.11,1.71,1.81,2.55.2.15-.29.95-2.22.93-2.4-.02-.18-1.87-1.38-2.13-1.53-.28-.16-.94-.59-1.23-.52-.04.01-.14.1-.18.14-.11.14-1.07,2.67-1.47,3.23.5.31,1.03.56,1.53.87Z"/>
  <path class="cls-1" d="M1.43,8.44c1.45.8,2.7,1.74,3.93,2.91.09-.69.3-.48.34-.59.03-.07-.05-.27-.02-.34.04-.1,1.03-.31-.53-1.6-.52-.44-2.37-1.68-2.97-1.59-.55.09-.45.69-.46.74,0,.03-.2.17-.28.47Z"/>
  <path class="cls-1" d="M4.55,12.47c.59.23.93-.1.89-.43-.05-.42-3.31-3.27-4.38-3.17-.36.03-.71.44-.31.86.26.27,3.51,2.63,3.8,2.74Z"/>
  <path class="cls-1" d="M8.75,3.67c.55.15,1.24-.16.82-.85-.28-.46-3.19-2.56-4.26-2.41-.25.03-.54.29-.44.59.08.24,3.66,2.61,3.88,2.67Z"/>
  <path class="cls-1" d="M6.21,4.07c.25.16,1.48,1.04,1.59,1.07.69.21.68-.56.7-.61,0-.02.39-.26.34-.35l-3.92-2.61c-.13.51-.8,1.05-.26,1.57.09.09,1.27.76,1.54.94Z"/>
  <path class="cls-1" d="M1.58,6.26c1.08.31,2.1-2.19,1.67-3.04-.14-.27-.5-.41-.77-.38-1.1.13-2.11,3.08-.9,3.42Z"/>
  <path class="cls-1" d="M10.32,13.19s-.09-.07-.15-.1c-.02-.01-.09-.11-.36-.23-.88-.41-2.66-.44-3.49.1-.11.07-.21.08-.31.23-.76.05-4.85-.06-5.09,0-.16.04-.29.34-.06.37,7.08-.01,7.54,0,14.63-.02v-.03c0,.06.07-.24-.27-.32-.3-.07-4.6.07-4.89,0Z"/>
  <path class="cls-1" d="M16.02,14.3c-.02-.11-.15-.37-.26-.38-7.6-.01-7.77-.04-15.37-.05-.28.36-.31.3-.33.82-.02.32-.05.76.27.9h15.37c.39-.02.37-1.02.32-1.29ZM.65,14.83q-.01-.1-.02-.21h14.8q0,.08.01.17c-7.4.02-7.38.02-14.78.04Z"/>
</svg>