<?xml version="1.0" encoding="UTF-8"?>
<svg id="textos-editables" xmlns="http://www.w3.org/2000/svg" viewBox="0 0 16 16">
  <defs>
    <style>
      .cls-1 {
        fill: #e5bb5f;
        stroke-width: 0px;
      }
    </style>
  </defs>
  <path class="cls-1" d="M3.73,10.96c.6,0,1.09-.49,1.09-1.09s-.49-1.09-1.09-1.09-1.09.49-1.09,1.09.49,1.09,1.09,1.09"/>
  <path class="cls-1" d="M8,10.96c.6,0,1.09-.49,1.09-1.09s-.49-1.09-1.09-1.09-1.09.49-1.09,1.09.49,1.09,1.09,1.09"/>
  <path class="cls-1" d="M12.1,10.96c.6,0,1.09-.49,1.09-1.09s-.49-1.09-1.09-1.09-1.09.49-1.09,1.09.49,1.09,1.09,1.09"/>
  <g>
    <path class="cls-1" d="M7.74.4c-1.85,0-3.61.89-4.71,2.39-.73,1-1.12,2.19-1.12,3.44,0,.14.11.25.25.25h2.33s.01,0,.02,0c.03,0,.05-.03.08-.04.03-.01.06-.02.08-.04.02-.02.03-.06.04-.09.01-.03.03-.05.03-.08,0,0,0,0,0,0,0,0,0,0,0,0-.26-3.47,1.78-4.99,2.16-5.24.28-.05.56-.08.85-.08s.56.04.83.08c.31.23,2.27,1.79,2.19,5.24,0,0,0,0,0,0s0,0,0,0c0,.03.02.06.04.09.01.03.01.07.04.09.02.02.06.03.09.04.03.01.05.04.08.04h2.31c.14,0,.25-.11.25-.25C13.57,3.01,10.95.4,7.74.4ZM4.23,5.98h-1.81c.05-1.05.4-2.05,1.02-2.9.6-.83,1.43-1.45,2.37-1.81-.75.81-1.68,2.32-1.57,4.71ZM11.26,5.98c-.01-2.41-.95-3.93-1.67-4.74,1.95.73,3.38,2.56,3.48,4.74h-1.81Z"/>
    <path class="cls-1" d="M10.03,6.54h-4.58c-.53,0-.97.43-.97.97s.44.97.97.97h4.58c.53,0,.97-.43.97-.97s-.44-.97-.97-.97ZM10.03,7.98h-4.58c-.26,0-.47-.21-.47-.47s.21-.47.47-.47h4.58c.26,0,.47.21.47.47s-.21.47-.47.47Z"/>
  </g>
  <g>
    <path class="cls-1" d="M6.19,6.52s-.36,0-.36-.36.36-1.45,1.81-1.45,1.81,1.09,1.81,1.45-.36.36-.36.36h-2.9Z"/>
    <path class="cls-1" d="M7.64,4.69c.6,0,1.09-.49,1.09-1.09s-.49-1.09-1.09-1.09-1.09.49-1.09,1.09.49,1.09,1.09,1.09"/>
  </g>
  <path class="cls-1" d="M2.38,13.87c-.17.08-.35.12-.55.12s-.38-.05-.55-.12C.29,14.1.02,14.94.02,15.25c0,.36.36.36.36.36h2.9s.36,0,.36-.36c0-.31-.27-1.15-1.27-1.39Z"/>
  <path class="cls-1" d="M1.83,13.74c-.6,0-1.09-.49-1.09-1.09s.49-1.09,1.09-1.09,1.09.49,1.09,1.09-.49,1.09-1.09,1.09Z"/>
  <path class="cls-1" d="M6.1,13.74c-.6,0-1.09-.49-1.09-1.09s.49-1.09,1.09-1.09,1.09.49,1.09,1.09-.49,1.09-1.09,1.09Z"/>
  <path class="cls-1" d="M10.29,13.74c-.6,0-1.09-.49-1.09-1.09s.49-1.09,1.09-1.09,1.09.49,1.09,1.09-.49,1.09-1.09,1.09Z"/>
  <path class="cls-1" d="M14.17,13.74c-.6,0-1.09-.49-1.09-1.09s.49-1.09,1.09-1.09,1.09.49,1.09,1.09-.49,1.09-1.09,1.09Z"/>
  <path class="cls-1" d="M4.8,12.84c0-.06-.04-.12-.04-.18,0-.39.18-.74.45-.99-.27-.34-.72-.64-1.49-.64-.61,0-1.02.2-1.3.45.43.22.74.66.74,1.18,0,.07-.03.12-.04.18h1.67Z"/>
  <path class="cls-1" d="M6.65,13.87c-.17.08-.35.12-.55.12s-.38-.05-.55-.12c-.99.23-1.27,1.07-1.27,1.39,0,.36.36.36.36.36h2.9s.36,0,.36-.36c0-.31-.27-1.15-1.27-1.39Z"/>
  <path class="cls-1" d="M10.81,13.88c-.16.07-.34.11-.52.11-.21,0-.4-.06-.57-.14-1.04.21-1.32,1.09-1.32,1.4,0,.36.36.36.36.36h2.9s.36,0,.36-.36c0-.3-.27-1.12-1.21-1.37Z"/>
  <path class="cls-1" d="M9.46,11.63c-.27-.32-.72-.6-1.46-.6-.61,0-1.02.2-1.3.45.43.22.74.66.74,1.18,0,.07-.03.12-.04.18h1.59c0-.06-.04-.12-.04-.18,0-.42.21-.78.51-1.02Z"/>
  <path class="cls-1" d="M13.47,11.54c-.28-.28-.71-.52-1.37-.52-.58,0-.99.18-1.26.41.46.21.79.67.79,1.21,0,.07-.03.12-.04.18h1.28c0-.06-.04-.12-.04-.18,0-.48.26-.87.64-1.11Z"/>
  <path class="cls-1" d="M14.72,13.87s-.06.02-.09.03c-.14.05-.29.09-.46.09s-.31-.04-.46-.09c-.03-.01-.06-.02-.09-.03h0c-.99.23-1.27,1.07-1.27,1.39,0,.36.36.36.36.36h2.9s.36,0,.36-.36c0-.31-.27-1.15-1.27-1.39Z"/>
</svg>