<?xml version="1.0" encoding="UTF-8"?>
<svg xmlns="http://www.w3.org/2000/svg" viewBox="0 0 16 16">
  <defs>
    <style>
      .cls-1 {
        fill: #9085da;
        stroke-width: 0px;
      }
    </style>
  </defs>
  <g id="Capa_1" data-name="Capa 1">
    <g>
      <path class="cls-1" d="M4.8,2.13c-2.06,0-3.73,1.67-3.73,3.73v5.33c0,2.06,1.67,3.73,3.73,3.73h5.33c2.06,0,3.73-1.67,3.73-3.73v-2.67c0-.29.24-.53.53-.53s.53.24.53.53v2.67c0,2.65-2.15,4.8-4.8,4.8h-5.33C2.15,16,0,13.85,0,11.2v-5.33C0,3.22,2.15,1.07,4.8,1.07h2.67c.29,0,.53.24.53.53s-.24.53-.53.53h-2.67Z"/>
      <path class="cls-1" d="M16,3.2c0,1.77-1.43,3.2-3.2,3.2s-3.2-1.43-3.2-3.2,1.43-3.2,3.2-3.2,3.2,1.43,3.2,3.2"/>
    </g>
  </g>
  <g id="textos-editables">
    <g>
      <path class="cls-1" d="M2.26,9.93c0-.26.05-.5.15-.7s.25-.36.44-.48c.19-.11.41-.17.66-.17.36,0,.65.11.87.33.23.22.35.51.38.89v.18c0,.41-.11.73-.33.98-.23.24-.53.37-.91.37s-.69-.12-.91-.37c-.23-.24-.34-.58-.34-1v-.03ZM2.97,9.99c0,.25.05.44.14.58s.23.2.41.2.3-.07.4-.2c.1-.13.14-.34.14-.63,0-.25-.05-.44-.14-.57-.1-.13-.23-.2-.41-.2s-.31.07-.4.2-.14.34-.14.62Z"/>
      <path class="cls-1" d="M5.2,7.96c0-.11.04-.19.11-.26.07-.07.17-.1.29-.1s.22.03.29.1.11.16.11.26-.04.2-.11.26c-.07.07-.17.1-.29.1s-.21-.03-.29-.1c-.07-.07-.11-.16-.11-.26ZM5.95,11.28h-.71v-2.64h.71v2.64Z"/>
      <path class="cls-1" d="M7.63,10.76c.13,0,.24-.04.32-.11.08-.07.12-.17.13-.29h.66c0,.18-.05.34-.15.49-.1.15-.23.26-.39.35-.17.08-.35.12-.55.12-.38,0-.68-.12-.89-.36s-.33-.57-.33-1v-.05c0-.41.11-.73.32-.97.22-.24.51-.36.89-.36.33,0,.6.09.79.28.2.19.3.44.3.75h-.66c0-.14-.05-.25-.13-.33s-.19-.13-.32-.13c-.16,0-.29.06-.37.18-.08.12-.13.31-.13.58v.07c0,.27.04.47.12.59.08.12.21.18.38.18Z"/>
      <path class="cls-1" d="M9.8,8.64l.02.29c.19-.23.44-.34.76-.34.34,0,.57.13.7.4.19-.27.45-.4.79-.4.29,0,.5.08.64.25s.21.42.21.75v1.69h-.71v-1.68c0-.15-.03-.26-.09-.33-.06-.07-.16-.1-.31-.1-.21,0-.36.1-.44.3v1.81s-.7,0-.7,0v-1.68c0-.15-.03-.26-.09-.33s-.16-.1-.31-.1c-.2,0-.35.08-.43.25v1.87h-.71v-2.64h.66Z"/>
    </g>
    <g>
      <path class="cls-1" d="M4.8,2.13c-2.06,0-3.73,1.67-3.73,3.73v5.33c0,2.06,1.67,3.73,3.73,3.73h5.33c2.06,0,3.73-1.67,3.73-3.73v-2.67c0-.29.24-.53.53-.53s.53.24.53.53v2.67c0,2.65-2.15,4.8-4.8,4.8h-5.33C2.15,16,0,13.85,0,11.2v-5.33C0,3.22,2.15,1.07,4.8,1.07h2.67c.29,0,.53.24.53.53s-.24.53-.53.53h-2.67Z"/>
      <path class="cls-1" d="M16,3.2c0,1.77-1.43,3.2-3.2,3.2s-3.2-1.43-3.2-3.2,1.43-3.2,3.2-3.2,3.2,1.43,3.2,3.2"/>
    </g>
    <g>
      <path class="cls-1" d="M4.6,5.15c0-.13-.04-.22-.13-.29s-.25-.14-.48-.21c-.23-.07-.41-.15-.55-.22-.37-.2-.55-.47-.55-.8,0-.17.05-.33.15-.47.1-.14.24-.24.42-.32.18-.08.39-.12.62-.12s.44.04.62.13c.18.08.32.2.42.35.1.15.15.33.15.52h-.67c0-.15-.05-.26-.14-.35-.09-.08-.22-.12-.39-.12s-.29.03-.38.1c-.09.07-.14.16-.14.27,0,.11.05.19.16.26s.26.14.47.2c.38.11.66.26.83.42s.26.38.26.63c0,.28-.11.5-.32.66-.21.16-.5.24-.86.24-.25,0-.48-.05-.68-.14-.2-.09-.36-.22-.47-.37s-.16-.34-.16-.55h.67c0,.36.21.54.64.54.16,0,.28-.03.37-.1s.13-.15.13-.27Z"/>
      <path class="cls-1" d="M6.3,4.1h.34c.16,0,.28-.04.36-.12s.12-.19.12-.32-.04-.23-.12-.3c-.08-.07-.18-.11-.32-.11-.12,0-.23.03-.31.1s-.12.16-.12.26h-.64c0-.17.05-.32.14-.45.09-.13.22-.24.38-.31.16-.08.34-.11.54-.11.34,0,.61.08.8.25.19.16.29.39.29.68,0,.15-.05.28-.14.41s-.21.22-.36.29c.18.06.32.16.41.29.09.13.13.28.13.46,0,.29-.1.52-.31.69-.21.17-.49.26-.83.26-.32,0-.59-.08-.79-.26-.21-.17-.31-.4-.31-.68h.64c0,.12.05.22.14.3.09.08.2.12.34.12.15,0,.27-.04.36-.12.09-.08.13-.19.13-.32,0-.32-.18-.48-.53-.48h-.34v-.5Z"/>
    </g>
  </g>
</svg>