<?xml version="1.0" encoding="UTF-8" standalone="no"?>
<svg
   viewBox="0 0 16 16"
   version="1.1"
   id="svg10"
   sodipodi:docname="s3-oice.svg"
   inkscape:version="1.3.2 (091e20ef0f, 2023-11-25, custom)"
   xmlns:inkscape="http://www.inkscape.org/namespaces/inkscape"
   xmlns:sodipodi="http://sodipodi.sourceforge.net/DTD/sodipodi-0.dtd"
   xmlns="http://www.w3.org/2000/svg"
   xmlns:svg="http://www.w3.org/2000/svg">
  <sodipodi:namedview
     id="namedview10"
     pagecolor="#ffffff"
     bordercolor="#666666"
     borderopacity="1.0"
     inkscape:showpageshadow="2"
     inkscape:pageopacity="0.0"
     inkscape:pagecheckerboard="0"
     inkscape:deskcolor="#d1d1d1"
     inkscape:zoom="14.75"
     inkscape:cx="7.9661017"
     inkscape:cy="7.9661017"
     inkscape:window-width="3840"
     inkscape:window-height="2102"
     inkscape:window-x="0"
     inkscape:window-y="30"
     inkscape:window-maximized="1"
     inkscape:current-layer="Capa_1" />
  <defs
     id="defs1">
    <style
       id="style1">
      .cls-1 {
        fill: #9085da;
        stroke-width: 0px;
      }
    </style>
  </defs>
  <g
     id="Capa_1"
     data-name="Capa 1">
    <g
       id="g2">
      <path
         class="cls-1"
         d="M4.8,2.13c-2.06,0-3.73,1.67-3.73,3.73v5.33c0,2.06,1.67,3.73,3.73,3.73h5.33c2.06,0,3.73-1.67,3.73-3.73v-2.67c0-.29.24-.53.53-.53s.53.24.53.53v2.67c0,2.65-2.15,4.8-4.8,4.8h-5.33C2.15,16,0,13.85,0,11.2v-5.33C0,3.22,2.15,1.07,4.8,1.07h2.67c.29,0,.53.24.53.53s-.24.53-.53.53h-2.67Z"
         id="path1" />
      <path
         class="cls-1"
         d="M16,3.2c0,1.77-1.43,3.2-3.2,3.2s-3.2-1.43-3.2-3.2,1.43-3.2,3.2-3.2,3.2,1.43,3.2,3.2"
         id="path2" />
    </g>
    <g
       id="g6"
       transform="matrix(1.2673797,0,0,1.2673797,0.12323516,-2.0481287)">
      <path
         class="cls-1"
         d="M 2.98,10 C 2.98,9.74 3.03,9.5 3.13,9.3 3.23,9.1 3.38,8.94 3.57,8.82 3.76,8.71 3.98,8.65 4.23,8.65 4.59,8.65 4.88,8.76 5.1,8.98 5.33,9.2 5.45,9.49 5.48,9.87 v 0.18 c 0,0.41 -0.11,0.73 -0.33,0.98 C 4.92,11.27 4.62,11.4 4.24,11.4 3.86,11.4 3.55,11.28 3.33,11.03 3.1,10.79 2.99,10.45 2.99,10.03 V 10 Z m 0.71,0.05 c 0,0.25 0.05,0.44 0.14,0.58 0.09,0.14 0.23,0.2 0.41,0.2 0.18,0 0.3,-0.07 0.4,-0.2 C 4.74,10.5 4.78,10.29 4.78,10 4.78,9.75 4.73,9.56 4.64,9.43 4.55,9.3 4.41,9.23 4.23,9.23 4.05,9.23 3.92,9.3 3.83,9.43 3.74,9.56 3.69,9.77 3.69,10.05 Z"
         id="path3" />
      <path
         class="cls-1"
         d="m 5.91,8.02 c 0,-0.11 0.04,-0.19 0.11,-0.26 0.07,-0.07 0.17,-0.1 0.29,-0.1 0.12,0 0.22,0.03 0.29,0.1 0.07,0.07 0.11,0.16 0.11,0.26 0,0.1 -0.04,0.2 -0.11,0.26 C 6.53,8.35 6.43,8.38 6.31,8.38 6.19,8.38 6.1,8.35 6.02,8.28 5.95,8.21 5.91,8.12 5.91,8.02 Z m 0.75,3.32 H 5.95 V 8.7 h 0.71 z"
         id="path4" />
      <path
         class="cls-1"
         d="m 8.34,10.82 c 0.13,0 0.24,-0.04 0.32,-0.11 0.08,-0.07 0.12,-0.17 0.13,-0.29 H 9.45 C 9.45,10.6 9.4,10.76 9.3,10.91 9.2,11.06 9.07,11.17 8.91,11.26 8.74,11.34 8.56,11.38 8.36,11.38 7.98,11.38 7.68,11.26 7.47,11.02 7.25,10.78 7.14,10.45 7.14,10.03 V 9.98 C 7.14,9.57 7.25,9.25 7.46,9.01 7.67,8.77 7.97,8.65 8.35,8.65 c 0.33,0 0.6,0.09 0.79,0.28 0.2,0.19 0.3,0.44 0.3,0.75 H 8.78 C 8.78,9.54 8.73,9.43 8.65,9.35 8.57,9.27 8.46,9.22 8.33,9.22 8.17,9.22 8.04,9.28 7.96,9.4 7.88,9.52 7.83,9.71 7.83,9.98 v 0.07 c 0,0.27 0.04,0.47 0.12,0.59 0.08,0.12 0.21,0.18 0.38,0.18 z"
         id="path5" />
    </g>
  </g>
  <g
     id="textos-editables">
    <g
       id="g8">
      <path
         class="cls-1"
         d="M4.8,2.13c-2.06,0-3.73,1.67-3.73,3.73v5.33c0,2.06,1.67,3.73,3.73,3.73h5.33c2.06,0,3.73-1.67,3.73-3.73v-2.67c0-.29.24-.53.53-.53s.53.24.53.53v2.67c0,2.65-2.15,4.8-4.8,4.8h-5.33C2.15,16,0,13.85,0,11.2v-5.33C0,3.22,2.15,1.07,4.8,1.07h2.67c.29,0,.53.24.53.53s-.24.53-.53.53h-2.67Z"
         id="path7" />
      <path
         class="cls-1"
         d="M16,3.2c0,1.77-1.43,3.2-3.2,3.2s-3.2-1.43-3.2-3.2,1.43-3.2,3.2-3.2,3.2,1.43,3.2,3.2"
         id="path8" />
    </g>
    <g
       id="g10">
      <path
         class="cls-1"
         d="M4.63,5.15c0-.13-.04-.22-.13-.29s-.25-.14-.48-.21c-.23-.07-.41-.15-.55-.22-.37-.2-.55-.47-.55-.8,0-.17.05-.33.15-.47.1-.14.24-.24.42-.32.18-.08.39-.12.62-.12s.44.04.62.13c.18.08.32.2.42.35.1.15.15.33.15.52h-.67c0-.15-.05-.26-.14-.35-.09-.08-.22-.12-.39-.12s-.29.03-.38.1c-.09.07-.14.16-.14.27,0,.11.05.19.16.26s.26.14.47.2c.38.11.66.26.83.42s.26.38.26.63c0,.28-.11.5-.32.66-.21.16-.5.24-.86.24-.25,0-.48-.05-.68-.14-.2-.09-.36-.22-.47-.37s-.16-.34-.16-.55h.67c0,.36.21.54.64.54.16,0,.28-.03.37-.1s.13-.15.13-.27Z"
         id="path9" />
      <path
         class="cls-1"
         d="M6.34,4.1h.34c.16,0,.28-.04.36-.12s.12-.19.12-.32-.04-.23-.12-.3c-.08-.07-.18-.11-.32-.11-.12,0-.23.03-.31.1s-.12.16-.12.26h-.64c0-.17.05-.32.14-.45.09-.13.22-.24.38-.31.16-.08.34-.11.54-.11.34,0,.61.08.8.25.19.16.29.39.29.68,0,.15-.05.28-.14.41s-.21.22-.36.29c.18.06.32.16.41.29.09.13.13.28.13.46,0,.29-.1.52-.31.69-.21.17-.49.26-.83.26-.32,0-.59-.08-.79-.26-.21-.17-.31-.4-.31-.68h.64c0,.12.05.22.14.3.09.08.2.12.34.12.15,0,.27-.04.36-.12.09-.08.13-.19.13-.32,0-.32-.18-.48-.53-.48h-.34v-.5Z"
         id="path10" />
    </g>
  </g>
</svg>
