<?xml version="1.0" encoding="UTF-8"?>
<svg id="Capa_1" data-name="Capa 1" xmlns="http://www.w3.org/2000/svg" viewBox="0 0 16 16">
  <defs>
    <style>
      .cls-1 {
        fill: #4ca5ca;
        stroke-width: 0px;
      }
    </style>
  </defs>
  <g>
    <path class="cls-1" d="M4.8,2.13c-2.06,0-3.73,1.67-3.73,3.73v5.33c0,2.06,1.67,3.73,3.73,3.73h5.33c2.06,0,3.73-1.67,3.73-3.73v-2.67c0-.29.24-.53.53-.53s.53.24.53.53v2.67c0,2.65-2.15,4.8-4.8,4.8h-5.33C2.15,16,0,13.85,0,11.2v-5.33C0,3.22,2.15,1.07,4.8,1.07h2.67c.29,0,.53.24.53.53s-.24.53-.53.53h-2.67Z"/>
    <path class="cls-1" d="M16,3.2c0,1.77-1.43,3.2-3.2,3.2s-3.2-1.43-3.2-3.2,1.43-3.2,3.2-3.2,3.2,1.43,3.2,3.2"/>
  </g>
  <g>
    <path class="cls-1" d="M5.98,11.25c0-.19-.07-.34-.2-.44s-.38-.21-.72-.32c-.35-.11-.62-.22-.83-.33-.55-.3-.83-.7-.83-1.21,0-.26.07-.5.22-.71s.36-.37.64-.48c.28-.12.59-.17.94-.17s.66.06.93.19c.27.13.48.3.63.53.15.23.23.49.23.78h-1c0-.22-.07-.4-.21-.52-.14-.12-.34-.19-.59-.19s-.44.05-.57.16c-.14.1-.2.24-.2.41,0,.16.08.29.24.4.16.11.39.21.71.3.57.17.99.38,1.25.64.26.25.39.57.39.95,0,.42-.16.75-.48.99s-.75.36-1.29.36c-.38,0-.72-.07-1.02-.21-.31-.14-.54-.33-.71-.56-.16-.24-.24-.52-.24-.83h1.01c0,.54.32.81.96.81.24,0,.43-.05.56-.15s.2-.23.2-.41Z"/>
    <path class="cls-1" d="M10.19,7.61v.8h-.09c-.44,0-.79.12-1.06.34-.27.22-.43.53-.48.92.26-.26.59-.4.98-.4.42,0,.76.15,1.01.46.25.3.38.7.38,1.2,0,.32-.07.6-.21.86s-.33.46-.58.6c-.25.14-.54.21-.85.21-.51,0-.93-.18-1.24-.54s-.47-.83-.47-1.43v-.35c0-.53.1-1,.3-1.4.2-.41.49-.72.86-.94.37-.22.81-.33,1.3-.34h.16ZM9.25,10.05c-.16,0-.3.04-.43.12-.13.08-.22.19-.28.32v.29c0,.32.06.58.19.76.13.18.31.27.54.27.21,0,.38-.08.5-.25.13-.16.19-.38.19-.64s-.06-.48-.19-.64c-.13-.16-.3-.24-.52-.24Z"/>
  </g>
</svg>