<?xml version="1.0" encoding="UTF-8"?>
<svg xmlns="http://www.w3.org/2000/svg" viewBox="0 0 16 16">
  <defs>
    <style>
      .cls-1 {
        fill: #b5877a;
        stroke-width: 0px;
      }
    </style>
  </defs>
  <g id="Capa_1" data-name="Capa 1">
    <g>
      <path class="cls-1" d="M4.91,2.26c-2.06,0-3.73,1.67-3.73,3.73v5.33c0,2.06,1.67,3.73,3.73,3.73h5.33c2.06,0,3.73-1.67,3.73-3.73v-2.67c0-.29.24-.53.53-.53s.53.24.53.53v2.67c0,2.65-2.15,4.8-4.8,4.8h-5.33C2.26,16.13.11,13.98.11,11.33v-5.33C.11,3.35,2.26,1.2,4.91,1.2h2.67c.29,0,.53.24.53.53s-.24.53-.53.53h-2.67Z"/>
      <path class="cls-1" d="M16.11,3.33c0,1.77-1.43,3.2-3.2,3.2s-3.2-1.43-3.2-3.2S11.14.13,12.91.13s3.2,1.43,3.2,3.2"/>
    </g>
  </g>
  <g id="textos-editables">
    <g>
      <path class="cls-1" d="M4.86,7.05v1.06h.74v.85h-.74v2.16c0,.16.03.27.09.34.06.07.18.1.35.1.13,0,.24,0,.34-.03v.88c-.23.07-.46.1-.7.1-.81,0-1.22-.41-1.24-1.23v-2.33h-.63v-.85h.63v-1.06h1.16Z"/>
      <path class="cls-1" d="M7.47,8.12v4.56c0,.48-.13.85-.38,1.11s-.62.4-1.1.4c-.2,0-.39-.02-.57-.07v-.92c.14.02.26.04.36.04.35,0,.52-.18.52-.56v-4.57h1.16ZM6.22,7c0-.17.06-.32.17-.43.12-.11.27-.17.47-.17s.36.06.47.17c.12.11.17.25.17.43s-.06.32-.18.43c-.12.11-.28.17-.47.17s-.35-.06-.47-.17c-.12-.11-.18-.26-.18-.43Z"/>
      <path class="cls-1" d="M10.88,12.44c-.05-.1-.09-.23-.12-.39-.28.31-.64.47-1.09.47-.42,0-.78-.12-1.05-.37-.28-.24-.42-.55-.42-.93,0-.46.17-.81.51-1.06.34-.24.83-.37,1.47-.37h.53v-.25c0-.2-.05-.36-.15-.48-.1-.12-.26-.18-.49-.18-.19,0-.35.05-.46.14s-.17.22-.17.38h-1.16c0-.25.08-.48.23-.7.15-.21.37-.38.66-.5.28-.12.6-.18.95-.18.53,0,.96.13,1.27.4.31.27.47.64.47,1.13v1.88c0,.41.06.72.17.93v.07h-1.17ZM9.92,11.64c.17,0,.33-.04.47-.11.14-.08.25-.18.32-.31v-.74h-.43c-.58,0-.89.2-.92.6v.07c0,.14.05.26.15.36.1.09.24.14.42.14Z"/>
    </g>
  </g>
</svg>